<svg width="128" height="85" viewBox="0 0 128 85" fill="none" xmlns="http://www.w3.org/2000/svg">
<path d="M115.793 3.88813C116.444 1.5879 118.544 0 120.935 0C124.479 0 127.041 3.38787 126.076 6.79829L105.301 80.2015C104.65 82.5017 102.551 84.0896 100.16 84.0896C96.6157 84.0896 94.0536 80.7018 95.0188 77.2914L115.793 3.88813Z" fill="#267491"/>
<path d="M73.8532 3.89425C74.5071 1.59006 76.6112 0 79.0064 0C82.5613 0 85.1301 3.39923 84.1596 6.81906L63.3362 80.1954C62.6823 82.4996 60.5782 84.0896 58.1831 84.0896C54.6282 84.0896 52.0594 80.6904 53.0299 77.2706L73.8532 3.89425Z" fill="#267491"/>
<path d="M84.5026 3.88813C83.8516 1.5879 81.7519 0 79.3614 0C75.817 0 73.2549 3.38787 74.2201 6.79829L94.9946 80.2015C95.6456 82.5017 97.7453 84.0896 100.136 84.0896C103.68 84.0896 106.242 80.7018 105.277 77.2914L84.5026 3.88813Z" fill="#004E6B"/>
<path d="M41.9047 3.88813C41.2537 1.5879 39.154 0 36.7635 0C33.2191 0 30.657 3.38787 31.6222 6.79829L52.3967 80.2015C53.0477 82.5017 55.1474 84.0896 57.5379 84.0896C61.0823 84.0896 63.6444 80.7018 62.6792 77.2914L41.9047 3.88813Z" fill="#004E6B"/>
<path d="M31.598 3.88813C32.249 1.5879 34.3487 0 36.7393 0C40.2837 0 42.8458 3.38787 41.8806 6.79829L21.1061 80.2015C20.4551 82.5017 18.3554 84.0896 15.9648 84.0896C12.4204 84.0896 9.85833 80.7018 10.8235 77.2914L31.598 3.88813Z" fill="#082D3A"/>
<path d="M7.0652 42.0448C3.52082 42.0448 0.958714 45.4327 1.92393 48.8431L10.7989 80.2015C11.45 82.5017 13.5496 84.0896 15.9402 84.0896C19.4846 84.0896 22.0467 80.7017 21.0815 77.2913L12.2065 45.9329C11.5555 43.6327 9.45578 42.0448 7.0652 42.0448Z" fill="#010304"/>
</svg>
